<svg width="565" height="490" viewBox="0 0 565 490" fill="none" xmlns="http://www.w3.org/2000/svg">
<path d="M510.421 0.251953L428.543 0.389648L422.165 0.356603L418.999 5.48438L378.953 70.3389L310.303 70.4766L273.937 11.6807L270.876 6.48129L264.5 6.4152L182.625 6.55179L176.212 6.51654L173.078 11.6454L133.433 75.8797L56.9868 76.0174L50.6087 75.9844L47.4395 81.1133L6.52051 147.414L3.38626 152.543L6.62778 157.707L42.9212 216.398L3.56816 280.221L0.398926 285.35L3.64278 290.514L44.5991 356.711L47.6226 361.943L54.0356 361.976L133.105 361.84L169.287 420.256L172.313 425.488L178.726 425.524L257.542 425.387L293.906 484.183L296.968 489.38L303.346 489.45L385.221 489.313L391.415 489.414L394.587 484.285L434.412 419.981L510.861 419.845L517.055 419.948L520.189 414.819L561.326 348.45L564.46 343.321L561.219 338.157L520.261 271.96L517.236 266.761L510.823 266.695L432.009 266.831L400.305 215.609L438.713 153.542L510.458 153.404L516.653 153.509L519.787 148.38L560.889 82.011L564.06 76.8811L560.815 71.7169L519.859 5.51963L516.835 0.322452L510.422 0.254155L510.421 0.251953ZM504.189 20.8027L538.586 77.0859L504.154 132.922L434.811 133.024L400.268 76.9493L434.847 20.8732L504.189 20.8027ZM132.632 96.4316L167.03 152.715L132.595 208.551L63.2518 208.654L28.7098 152.577L63.2891 96.5021L132.632 96.4327V96.4316ZM257.285 160.322L290.551 214.85L255.135 272.268L187.762 272.372L153.365 216.504L187.944 160.427L257.287 160.323L257.285 160.322ZM380.082 223.49L414.333 279.602L379.898 335.473L310.559 335.539L277.071 281.185L312.708 223.594L380.082 223.49ZM504.589 287.243L538.986 343.527L504.554 399.363L435.211 399.432L400.669 343.39L435.248 287.313L504.591 287.243H504.589ZM254.443 292.96L288.731 349.104L254.299 404.94L184.956 405.009L150.413 348.932L184.88 293.064L254.441 292.96H254.443Z" fill="#F59E0B" fill-opacity="0.8"/>
</svg>
